<svg width="900" height="300" viewBox="0 0 900 300" fill="none" xmlns="http://www.w3.org/2000/svg">
<g clip-path="url(#clip0_18_2)">
<path d="M105 300.2C100.2 300.2 94.8 299.267 88.8 297.4C82.6667 295.533 77.4667 293.2 73.2 290.4C68.9333 287.733 66.8 285.2 66.8 282.8C66.8 281.467 67.4 280.4 68.6 279.6C69.8 278.8 71.5333 278.467 73.8 278.6C81 283.8 86.5333 287.067 90.4 288.4C94.2667 289.867 99.4 290.6 105.8 290.6C117.533 290.6 127.067 287 134.4 279.8C141.733 272.733 147.533 263.067 151.8 250.8C154.6 242.8 157.467 229.933 160.4 212.2C163.333 194.333 166.667 172.467 170.4 146.6L173.4 126.8L154.8 127.2C152.133 126.933 150.8 125.733 150.8 123.6C150.8 121.733 151.4 120.467 152.6 119.8C153.933 119 156.067 118.533 159 118.4C162.067 118.133 167.533 118 175.4 118C179.533 101.333 183.467 88.1333 187.2 78.4C191.067 68.6667 196.133 61.0667 202.4 55.6C208.667 50 216.8 47.2 226.8 47.2C237.867 47.2 243.4 49.2 243.4 53.2C243.4 55.2 242.067 57.1333 239.4 59C235.8 58.3333 230.467 58 223.4 58C214.067 58 206 63.6 199.2 74.8C192.533 85.8667 187.867 100.267 185.2 118L210.6 118.2C214.333 118.2 216.2 119.467 216.2 122C216.2 125.2 213 126.933 206.6 127.2H200.4H183.2C181.467 136.8 178 158.933 172.8 193.6L167.2 229.8C162.533 258.333 153.267 278.267 139.4 289.6C131 296.667 119.533 300.2 105 300.2ZM232.998 219.8C226.065 219.8 220.865 217.067 217.398 211.6C214.065 206.133 212.398 199.6 212.398 192C212.398 179.867 214.398 168.133 218.398 156.8C222.532 145.333 228.132 135.867 235.198 128.4C241.998 120.8 249.665 117 258.198 117C270.465 117 276.598 126.333 276.598 145C276.598 154.333 275.065 163.867 271.998 173.6C268.932 183.333 264.932 192 259.998 199.6C255.198 207.2 250.198 212.667 244.998 216C240.998 218.533 236.998 219.8 232.998 219.8ZM234.598 210.8C238.732 210.8 243.332 207.2 248.398 200C253.598 192.8 257.932 183.867 261.398 173.2C264.998 162.533 266.798 153.467 266.798 146C266.798 138.267 266.332 133.467 265.398 131.6C264.598 129.6 263.598 128.2 262.398 127.4C261.198 126.6 259.332 126.2 256.798 126.2C253.998 126.2 251.065 127.267 247.998 129.4C241.865 133.267 236.532 139.933 231.998 149.4C224.932 163.533 221.398 177.267 221.398 190.6C221.398 199.667 223.998 205.933 229.198 209.4C231.065 210.333 232.865 210.8 234.598 210.8ZM293.37 221.2C291.504 221.2 290.57 220 290.57 217.6L295.17 193.8L303.57 151.6C307.304 132.933 309.17 123.6 309.17 123.6C309.704 120.667 310.437 118.533 311.37 117.2C312.304 115.867 313.504 115.2 314.97 115.2C316.304 115.2 317.304 115.533 317.97 116.2C318.77 116.867 319.17 118.067 319.17 119.8C319.17 122.867 318.237 127.533 316.37 133.8C315.437 136.867 314.77 139.467 314.37 141.6C313.837 143.467 313.237 145.6 312.57 148C311.904 150.267 311.17 152.933 310.37 156C313.97 147.867 317.37 141.4 320.57 136.6C323.77 131.667 327.77 127 332.57 122.6C337.104 118.733 341.637 116.8 346.17 116.8C349.504 116.8 352.304 117.533 354.57 119C356.837 120.333 357.97 121.933 357.97 123.8C357.97 125.267 357.437 126.467 356.37 127.4C355.304 128.2 353.97 128.6 352.37 128.6C351.17 128.6 350.037 128.333 348.97 127.8C348.17 127.133 347.104 126.8 345.77 126.8C344.037 126.8 341.504 128 338.17 130.4C331.904 134.933 326.57 140.933 322.17 148.4C317.904 155.733 314.504 163.2 311.97 170.8C309.57 178.267 306.97 187.333 304.17 198L302.37 205.4C300.37 215.933 297.37 221.2 293.37 221.2ZM424.664 218.4C421.597 218.4 418.731 216.8 416.064 213.6C413.531 210.267 412.264 206.733 412.264 203C412.264 194.733 414.464 180.733 418.864 161C415.531 168.2 411.197 175.6 405.864 183.2C400.664 190.667 395.531 197.267 390.464 203C385.397 208.733 381.664 212.467 379.264 214.2C375.931 216.733 372.264 218 368.264 218C360.664 218 356.864 213.2 356.864 203.6C356.864 194.267 360.397 182.667 367.464 168.8C374.531 154.8 382.931 142.667 392.664 132.4C402.397 122.267 410.264 117.2 416.264 117.2C422.397 117.2 425.864 119.867 426.664 125.2C427.064 126.8 427.264 128.533 427.264 130.4C427.931 130 428.664 129.8 429.464 129.8C432.531 129.8 434.064 131.267 434.064 134.2V135L431.664 143.8C429.797 150.467 427.864 160.333 425.864 173.4C423.864 186.467 422.864 197.333 422.864 206L424.864 207.2C428.064 209.2 429.664 211.2 429.664 213.2C429.664 214.533 429.197 215.733 428.264 216.8C427.331 217.867 426.131 218.4 424.664 218.4ZM369.864 207.6C371.331 207.6 372.531 207.133 373.464 206.2C387.064 194.6 399.131 178.533 409.664 158C414.197 149.467 416.997 143.867 418.064 141.2C419.264 138.533 419.864 135.933 419.864 133.4C419.864 132.067 419.531 130.867 418.864 129.8C418.197 128.733 417.331 128.2 416.264 128.2C414.931 128.2 413.197 128.8 411.064 130C405.731 132.8 399.397 138.733 392.064 147.8C384.864 156.867 378.931 166.467 374.264 176.6C369.331 186.867 366.864 196 366.864 204C366.864 206.4 367.864 207.6 369.864 207.6ZM505.708 219.2C503.574 219.2 502.041 218.8 501.108 218C500.174 217.2 499.841 215.8 500.108 213.8L509.908 155.4C511.108 148.2 511.708 142.667 511.708 138.8C511.708 132.4 509.908 129.2 506.308 129.2C501.908 129.2 495.841 136.867 488.108 152.2C480.508 167.4 472.641 184.6 464.508 203.8L461.708 210.2C459.308 215.4 456.908 218 454.508 218C453.174 218 452.308 217.733 451.908 217.2C451.641 216.533 451.508 215.2 451.508 213.2C451.508 211.2 454.108 195.8 459.308 167C464.641 138.2 467.708 123.067 468.508 121.6C469.308 120 469.974 119 470.508 118.6C471.174 118.2 472.374 118 474.108 118C475.708 118 476.974 118.6 477.908 119.8C478.974 121 479.508 122.2 479.508 123.4C479.508 124.2 478.841 126.8 477.508 131.2C473.508 144.8 470.374 158 468.108 170.8L466.108 182.6C468.374 177.8 470.041 174.067 471.108 171.4C474.841 162.733 478.241 155.133 481.308 148.6C484.508 142.067 488.041 136 491.908 130.4C497.774 122 503.241 117.8 508.308 117.8C517.241 117.8 521.708 125 521.708 139.4C521.708 142.467 521.308 146.4 520.508 151.2C519.708 156 518.841 160.933 517.908 166C516.041 175.733 514.841 182.4 514.308 186L512.908 195.2C511.708 203.467 510.641 209.533 509.708 213.4C508.774 217.267 507.441 219.2 505.708 219.2ZM546.166 300C539.632 300 534.232 297.8 529.966 293.4C525.699 289 523.566 283.267 523.566 276.2C523.566 270.333 525.032 265 527.966 260.2C530.766 255.4 534.099 251.2 537.966 247.6C541.966 244.133 547.166 240.067 553.566 235.4C554.366 234.867 555.099 234.333 555.766 233.8C556.432 233.4 556.966 233.067 557.366 232.8C563.099 228.667 568.899 224.2 574.766 219.4C575.699 215.133 577.032 209.067 578.766 201.2C580.499 193.333 581.899 187.4 582.966 183.4C579.366 193.8 574.966 202.4 569.766 209.2C564.699 215.867 559.566 219.2 554.366 219.2C549.432 219.2 545.566 217.467 542.766 214C540.099 210.4 538.766 205.467 538.766 199.2C538.766 187.467 540.899 175.267 545.166 162.6C549.566 149.933 555.499 139.067 562.966 130C570.299 120.8 578.566 116.2 587.766 116.2C592.032 116.2 596.099 117.267 599.966 119.4C600.766 119 601.632 118.8 602.566 118.8C604.699 118.8 605.766 119.867 605.766 122C605.766 123.867 605.232 126.533 604.166 130C603.099 133.467 602.432 135.6 602.166 136.4C600.432 142.667 597.566 154.6 593.566 172.2L584.766 212.8C586.099 211.867 588.966 209.533 593.366 205.8C593.899 205.4 594.899 204.6 596.366 203.4C597.832 202.067 599.032 201.133 599.966 200.6C601.032 199.933 601.899 199.6 602.566 199.6C604.966 199.6 606.166 200.733 606.166 203C606.166 204.6 605.632 205.933 604.566 207C597.632 212.333 590.632 217.533 583.566 222.6L577.766 252C573.899 271.867 568.899 285.2 562.766 292C557.966 297.333 552.432 300 546.166 300ZM555.166 210C558.099 210 561.366 208.067 564.966 204.2C568.566 200.333 572.032 195.133 575.366 188.6C578.832 181.933 581.699 174.8 583.966 167.2L591.766 140L595.366 126.8C593.499 125.067 590.899 124.2 587.566 124.2C581.832 124.2 575.832 128 569.566 135.6C563.432 143.2 558.232 152.8 553.966 164.4C549.832 175.867 547.766 186.333 547.766 195.8C547.766 205.267 550.232 210 555.166 210ZM545.766 290C550.432 290 554.299 288.133 557.366 284.4C560.432 280.667 562.832 275.733 564.566 269.6C566.432 263.6 568.299 255.733 570.166 246L573.166 230.2C568.366 234.2 563.566 238 558.766 241.6C551.432 247.067 545.366 252.533 540.566 258C535.766 263.6 533.366 270 533.366 277.2C533.366 281.467 534.432 284.667 536.566 286.8C538.832 288.933 541.899 290 545.766 290ZM635.342 220C631.076 220 627.742 219.333 625.342 218C622.942 216.533 621.009 214.333 619.542 211.4C616.742 206.2 615.342 199.933 615.342 192.6C615.342 179.8 617.276 167.667 621.142 156.2C625.009 144.6 630.276 134.867 636.942 127C643.342 119.533 650.342 115.8 657.942 115.8C661.942 115.8 665.076 117.467 667.342 120.8C669.742 124 670.942 127.933 670.942 132.6C670.942 140.733 668.809 147.8 664.542 153.8C660.409 159.8 654.809 164.8 647.742 168.8C641.609 172.4 634.142 176 625.342 179.6L624.942 194C624.942 205.2 628.342 210.8 635.142 210.8C637.942 210.8 640.609 210.267 643.142 209.2C645.809 208.133 648.676 206.667 651.742 204.8C655.342 202.667 657.876 201.6 659.342 201.6C661.609 201.6 662.742 202.8 662.742 205.2C662.742 206.933 661.076 209 657.742 211.4C654.542 213.8 650.742 215.867 646.342 217.6C641.942 219.2 638.276 220 635.342 220ZM626.942 170C635.876 166.4 642.676 163.2 647.342 160.4C652.009 157.6 655.542 154.067 657.942 149.8C660.476 145.533 661.742 139.933 661.742 133C661.742 127.8 659.542 125.2 655.142 125.2C651.276 125.2 646.742 128.733 641.542 135.8C636.076 142.867 631.676 152.133 628.342 163.6C627.409 166.8 626.942 168.933 626.942 170ZM724.586 219.6C723.119 219.6 722.053 218.533 721.386 216.4C721.253 214.667 720.586 212.533 719.386 210C718.319 208.4 717.119 205.733 715.786 202C715.253 200 713.653 195.867 710.986 189.6C707.519 181.333 705.453 176.267 704.786 174.4L677.386 216.4C676.186 218.4 674.319 219.4 671.786 219.4C669.253 219.4 667.986 218.333 667.986 216.2C667.986 215 668.586 213.4 669.786 211.4L675.386 202.6L681.786 192.4C689.653 180 695.786 170.533 700.186 164L698.986 161C697.653 157.133 696.853 154.8 696.586 154C694.853 148.8 693.386 144.6 692.186 141.4L690.586 136.6C689.653 133.933 689.119 132.333 688.986 131.8L687.186 126.6C687.053 125.933 686.853 125.267 686.586 124.6C686.319 123.8 686.119 123.067 685.986 122.4C685.453 121.333 685.186 120.267 685.186 119.2C685.186 118.4 685.719 117.533 686.786 116.6C687.853 115.533 689.119 115 690.586 115C693.119 115 695.119 117.133 696.586 121.4C697.386 123.8 697.919 125.6 698.186 126.8C698.719 130 699.719 133.467 701.186 137.2C702.786 142 704.119 145.6 705.186 148C705.586 149.333 706.319 151.333 707.386 154C710.586 150.133 714.653 144.6 719.586 137.4L724.586 130.2C727.919 125.533 729.719 123.067 729.986 122.8C731.986 120.533 733.853 118.933 735.586 118C736.653 117.6 737.586 117.4 738.386 117.4C740.519 117.8 741.586 118.867 741.586 120.6C741.586 122.2 741.253 123.667 740.586 125C739.786 126.6 738.053 129.067 735.386 132.4C734.319 133.6 731.386 137.467 726.586 144C726.586 144 725.786 145.2 724.186 147.6C719.919 154 715.786 159.667 711.786 164.6C719.519 183.4 723.786 194.2 724.586 197C725.786 200.867 727.119 204.133 728.586 206.8C730.053 209.333 730.786 211.933 730.786 214.6C730.519 216.067 729.786 217.267 728.586 218.2C727.519 219.133 726.186 219.6 724.586 219.6Z" fill="white"/>
</g>
<defs>
<clipPath id="clip0_18_2">
<rect width="900" height="300" fill="white"/>
</clipPath>
</defs>
</svg>
